<?xml version="1.0" encoding="UTF-8" standalone="no"?>
<!DOCTYPE svg PUBLIC "-//W3C//DTD SVG 20010904//EN"
              "http://www.w3.org/TR/2001/REC-SVG-20010904/DTD/svg10.dtd">

<svg xmlns="http://www.w3.org/2000/svg"
     width="3.90229in" height="1.63868in"
     viewBox="0 0 281 118">
  <path id="Selection #2"
        fill="none" stroke="black" stroke-width="1"
        d="M 51.02,14.04
           C 44.43,15.07 46.62,5.40 54.00,8.00
             54.00,8.00 51.00,11.00 51.00,11.00
             51.00,11.00 57.17,8.99 57.17,8.99
             60.77,8.80 66.58,14.28 66.09,18.04
             65.64,21.44 62.53,22.85 63.08,28.42
             63.49,32.69 64.25,32.65 61.00,36.00
             61.00,36.00 61.00,31.00 61.00,31.00
             61.00,31.00 54.00,36.00 54.00,36.00
             58.49,40.02 64.79,47.73 64.00,54.00
             64.00,54.00 59.00,52.69 59.00,52.69
             57.08,52.55 55.80,53.02 54.43,54.40
             49.61,59.22 54.80,66.42 55.66,72.42
             56.18,75.99 56.04,83.86 58.01,86.69
             59.67,89.07 66.70,89.80 70.00,91.00
             70.00,91.00 70.00,89.00 70.00,89.00
             70.00,89.00 75.00,89.00 75.00,89.00
             75.00,89.00 74.00,91.00 74.00,91.00
             74.00,91.00 77.00,91.00 77.00,91.00
             79.28,96.99 94.28,96.60 93.00,107.00
             87.14,105.63 73.41,99.67 68.04,100.48
             62.11,101.38 61.90,108.52 53.00,107.00
             53.00,107.00 54.00,99.00 54.00,99.00
             54.00,99.00 29.00,100.66 29.00,100.66
             29.00,100.66 8.00,107.00 8.00,107.00
             7.40,102.14 8.77,101.07 13.00,99.00
             13.00,99.00 12.00,96.00 12.00,96.00
             12.00,96.00 13.00,94.00 13.00,94.00
             13.00,94.00 17.00,95.00 17.00,95.00
             17.00,95.00 9.11,88.70 9.11,88.70
             9.11,88.70 10.89,79.72 10.89,79.72
             10.89,79.72 10.00,70.00 10.00,70.00
             10.00,70.00 20.00,70.00 20.00,70.00
             16.69,66.88 15.78,66.57 15.00,62.00
             15.00,62.00 10.00,64.00 10.00,64.00
             9.19,57.96 12.44,52.39 18.00,50.00
             18.00,50.00 18.00,48.00 18.00,48.00
             14.97,45.94 14.04,45.38 16.00,42.00
             5.10,32.72 24.44,22.48 28.52,35.91
             28.89,37.10 29.51,39.98 29.35,41.17
             29.06,43.37 27.16,46.07 26.00,48.00
             28.88,49.07 29.23,49.65 31.20,52.06
             36.19,58.14 35.01,62.33 28.00,66.00
             28.00,66.00 31.84,79.00 31.84,79.00
             31.84,79.00 34.00,90.00 34.00,90.00
             37.59,88.99 38.87,89.23 41.00,86.00
             41.00,86.00 37.86,87.00 37.86,87.00
             36.92,83.20 36.67,72.73 37.86,69.00
             38.77,65.27 43.39,57.76 43.59,54.00
             43.68,52.31 42.44,48.88 42.00,47.00
             35.05,51.50 33.32,47.99 34.88,45.35
             37.12,41.56 44.63,37.05 49.00,36.00
             49.00,36.00 47.00,26.00 47.00,26.00
             47.00,26.00 45.00,31.00 45.00,31.00
             40.70,29.49 40.70,27.51 45.00,26.00
             45.93,17.97 48.98,18.19 54.00,13.00
             54.00,13.00 51.02,14.04 51.02,14.04 Z
           M 172.13,26.01
           C 172.79,21.87 181.25,15.68 186.00,22.00
             186.00,22.00 183.08,23.41 183.08,23.41
             176.59,27.57 184.84,30.66 184.46,35.98
             184.04,41.88 174.46,42.79 170.00,43.00
             170.00,43.00 170.00,39.00 170.00,39.00
             170.00,39.00 178.00,36.00 178.00,36.00
             175.99,33.33 171.58,29.50 172.13,26.01 Z
           M 143.20,35.98
           C 143.10,33.80 144.42,24.97 145.43,23.15
             146.17,21.81 147.73,20.15 149.20,21.17
             151.85,22.66 149.36,33.31 149.20,36.00
             149.20,36.00 155.00,37.00 155.00,37.00
             151.51,44.42 143.49,42.76 143.20,35.98 Z
           M 158.29,40.69
           C 155.89,39.05 156.05,36.59 156.00,34.00
             155.96,31.39 155.74,26.47 157.17,24.31
             158.86,21.79 166.17,20.60 168.71,22.06
             170.17,22.90 170.28,23.72 171.00,25.00
             171.00,25.00 163.00,29.00 163.00,29.00
             168.89,30.97 167.70,33.62 163.00,36.00
             166.83,37.34 166.67,38.09 167.00,42.00
             164.36,41.99 160.55,42.22 158.29,40.69 Z
           M 229.00,35.01
           C 232.67,34.98 243.01,33.12 245.40,35.01
             246.34,35.77 246.70,36.84 246.71,38.02
             246.74,43.44 240.17,45.73 236.00,47.00
             236.00,47.00 238.22,70.00 238.22,70.00
             238.22,70.00 238.22,81.81 238.22,81.81
             238.22,81.81 230.00,90.00 230.00,90.00
             230.00,90.00 226.00,87.00 226.00,87.00
             226.00,87.00 225.00,66.00 225.00,66.00
             225.00,66.00 222.00,47.00 222.00,47.00
             222.00,47.00 209.00,46.00 209.00,46.00
             211.27,33.90 218.66,35.05 229.00,35.01 Z
           M 253.98,85.10
           C 256.73,83.68 259.76,81.55 258.60,78.00
             257.09,73.39 245.62,67.19 242.09,59.00
             234.95,42.44 262.82,35.51 274.00,34.00
             274.00,34.00 269.00,38.00 269.00,38.00
             269.00,38.00 267.00,42.00 267.00,42.00
             267.00,42.00 270.00,43.00 270.00,43.00
             266.11,45.24 256.55,49.73 257.01,55.00
             257.72,62.99 273.92,68.85 274.77,80.00
             275.66,91.72 259.77,95.18 251.00,97.00
             248.91,97.43 243.12,98.85 241.31,98.23
             241.31,98.23 235.00,91.00 235.00,91.00
             241.62,89.24 247.73,88.32 253.98,85.10 Z
           M 112.02,82.95
           C 114.81,81.04 118.69,79.01 117.77,74.99
             116.33,68.71 106.13,64.10 103.23,57.00
             101.02,51.58 103.45,46.89 108.02,43.70
             113.77,39.67 126.96,37.15 134.00,37.00
             134.00,37.00 134.00,42.00 134.00,42.00
             134.00,42.00 137.00,43.00 137.00,43.00
             132.41,45.73 118.02,47.66 116.82,53.18
             116.20,56.07 119.16,58.54 121.04,60.25
             124.90,63.74 129.23,67.13 131.43,72.00
             137.82,86.11 112.84,93.20 103.00,94.00
             103.00,94.00 109.00,87.00 109.00,87.00
             107.74,85.01 110.41,84.04 112.02,82.95 Z
           M 88.65,41.65
           C 88.65,41.65 93.00,49.00 93.00,49.00
             93.00,49.00 84.00,59.00 84.00,59.00
             90.64,60.14 89.08,65.72 87.44,66.86
             85.34,68.32 81.69,66.22 80.00,65.00
             73.99,74.62 78.92,70.14 81.00,81.00
             82.25,80.54 83.51,79.88 84.89,79.91
             92.41,80.11 85.55,93.06 80.57,90.60
             79.11,89.88 78.55,86.48 78.14,85.00
             78.14,85.00 77.00,80.00 77.00,80.00
             77.00,80.00 68.00,77.00 68.00,77.00
             67.77,79.53 67.32,83.48 65.75,85.55
             63.81,88.11 61.07,87.15 60.75,83.94
             60.29,79.33 66.37,66.68 68.00,61.00
             66.54,62.17 62.95,65.40 61.40,62.44
             60.27,60.30 62.56,58.77 64.11,57.90
             69.00,55.16 71.42,53.79 77.00,55.00
             73.97,47.59 75.88,46.39 77.00,39.00
             77.00,39.00 88.65,41.65 88.65,41.65 Z
           M 154.00,92.75
           C 151.49,92.52 148.16,90.93 146.00,89.65
             134.48,82.81 132.40,69.54 137.92,58.00
             140.38,52.84 148.74,44.58 154.96,45.28
             158.03,45.63 161.23,48.42 159.85,51.72
             159.26,53.11 155.70,56.52 154.47,58.01
             150.06,63.36 145.42,71.17 150.01,77.87
             151.71,80.36 154.04,81.49 157.00,81.77
             159.26,81.99 162.65,81.31 165.00,81.00
             165.00,81.00 166.00,85.00 166.00,85.00
             161.34,87.06 162.06,93.47 154.00,92.75 Z
           M 177.00,80.69
           C 168.70,85.00 166.00,78.77 163.59,76.96
             161.32,75.26 157.65,75.18 157.12,69.00
             156.55,62.25 160.32,58.83 164.23,54.00
             166.49,51.21 167.33,49.46 170.26,47.35
             184.81,45.83 191.53,73.12 177.00,80.69 Z
           M 201.00,89.62
           C 185.31,90.41 187.98,72.15 188.00,62.00
             188.01,58.60 187.85,53.19 189.93,50.36
             192.24,47.22 195.61,47.83 199.00,48.00
             198.21,57.66 191.94,78.78 206.80,80.00
             205.77,73.12 205.38,61.87 206.80,55.00
             207.24,51.35 210.09,46.32 214.15,50.60
             216.66,53.25 215.84,60.43 216.09,64.00
             216.74,73.48 217.92,82.74 220.00,92.00
             214.62,92.79 210.98,93.34 208.00,88.00
             205.73,88.75 203.41,89.50 201.00,89.62 Z
           M 117.00,100.00
           C 117.00,100.00 128.00,99.00 128.00,99.00
             128.00,99.00 130.00,96.00 130.00,96.00
             130.00,96.00 130.00,104.00 130.00,104.00
             130.00,104.00 124.00,102.00 124.00,102.00
             121.31,104.96 115.78,103.91 112.00,104.00
             112.00,104.00 112.00,96.00 112.00,96.00
             115.47,96.59 116.20,96.45 117.00,100.00 Z
           M 148.00,97.61
           C 150.47,94.78 152.25,97.85 153.00,100.00
             153.00,100.00 155.83,98.96 155.83,98.96
             155.83,98.96 172.00,98.96 172.00,98.96
             172.00,98.96 172.00,96.00 172.00,96.00
             172.00,96.00 177.00,96.00 177.00,96.00
             177.00,96.00 177.00,104.00 177.00,104.00
             177.00,104.00 166.00,102.00 166.00,102.00
             166.00,102.00 162.00,102.00 162.00,102.00
             160.51,103.52 160.74,103.13 159.00,102.00
             156.01,104.09 155.07,104.06 153.00,101.00
             153.00,101.00 151.00,101.00 151.00,101.00
             151.00,101.00 150.00,104.00 150.00,104.00
             144.18,102.66 145.89,101.95 140.00,104.00
             140.00,104.00 139.00,101.00 139.00,101.00
             139.00,101.00 137.00,104.00 137.00,104.00
             137.28,100.46 138.65,96.50 142.00,101.00
             142.00,101.00 147.00,100.00 147.00,100.00
             147.20,99.43 147.21,98.51 148.00,97.61 Z
           M 186.00,96.00
           C 186.00,96.00 186.00,100.00 186.00,100.00
             192.37,97.58 191.94,102.71 188.94,103.49
             187.73,103.97 183.42,103.92 182.32,103.49
             179.69,102.08 180.74,99.77 183.00,99.00
             183.00,99.00 184.00,96.00 184.00,96.00
             184.00,96.00 186.00,96.00 186.00,96.00 Z
           M 201.00,101.00
           C 204.35,96.50 205.72,100.46 206.00,104.00
             206.00,104.00 201.00,102.00 201.00,102.00
             201.00,102.00 195.00,104.00 195.00,104.00
             195.00,104.00 195.00,96.00 195.00,96.00
             199.22,96.74 199.17,97.22 201.00,101.00 Z
           M 209.00,96.00
           C 209.00,96.00 209.00,100.00 209.00,100.00
             209.00,100.00 215.00,99.00 215.00,99.00
             214.91,101.68 215.03,106.05 210.99,105.34
             209.80,105.14 208.69,104.41 207.99,103.43
             206.76,101.68 207.01,98.11 207.00,96.00
             207.00,96.00 209.00,96.00 209.00,96.00 Z
           M 133.83,103.09
           C 132.46,103.35 129.92,101.33 133.16,99.17
             137.01,100.07 135.15,102.84 133.83,103.09 Z
           M 224.00,99.00
           C 224.00,99.00 224.00,106.00 224.00,106.00
             224.00,106.00 216.00,104.00 216.00,104.00
             216.00,104.00 216.00,99.00 216.00,99.00
             216.00,99.00 224.00,99.00 224.00,99.00 Z
           M 232.94,103.81
           C 232.94,103.81 229.71,103.81 229.71,103.81
             229.71,103.81 225.00,103.81 225.00,103.81
             225.00,103.81 225.00,99.00 225.00,99.00
             225.00,99.00 228.00,102.00 228.00,102.00
             230.64,94.74 238.89,101.83 232.94,103.81 Z
           M 209.00,103.00
           C 209.00,103.00 210.00,104.00 210.00,104.00
             210.00,104.00 210.00,103.00 210.00,103.00
             210.00,103.00 209.00,103.00 209.00,103.00 Z" />
</svg>
